<svg xmlns="http://www.w3.org/2000/svg" class="w-full h-full leading-none markmap mm-d8capy-1" style=""><style>.markmap{--markmap-max-width: 9999px;--markmap-a-color: #0097e6;--markmap-a-hover-color: #00a8ff;--markmap-code-bg: #f0f0f0;--markmap-code-color: #555;--markmap-highlight-bg: #ffeaa7;--markmap-table-border: 1px solid currentColor;--markmap-font: 300 16px/20px sans-serif;--markmap-circle-open-bg: #fff;--markmap-text-color: #333;--markmap-highlight-node-bg: #ff02;font:var(--markmap-font);color:var(--markmap-text-color)}.markmap-link{fill:none}.markmap-node>circle{cursor:pointer}.markmap-foreign{display:inline-block}.markmap-foreign p{margin:0}.markmap-foreign a{color:var(--markmap-a-color)}.markmap-foreign a:hover{color:var(--markmap-a-hover-color)}.markmap-foreign code{padding:.25em;font-size:calc(1em - 2px);color:var(--markmap-code-color);background-color:var(--markmap-code-bg);border-radius:2px}.markmap-foreign pre{margin:0}.markmap-foreign pre>code{display:block}.markmap-foreign del{text-decoration:line-through}.markmap-foreign em{font-style:italic}.markmap-foreign strong{font-weight:700}.markmap-foreign mark{background:var(--markmap-highlight-bg)}.markmap-foreign table,.markmap-foreign th,.markmap-foreign td{border-collapse:collapse;border:var(--markmap-table-border)}.markmap-foreign img{display:inline-block}.markmap-foreign svg{fill:currentColor}.markmap-foreign>div{width:var(--markmap-max-width);text-align:left}.markmap-foreign>div>div{display:inline-block}.markmap-highlight rect{fill:var(--markmap-highlight-node-bg)}.markmap-dark .markmap{--markmap-code-bg: #1a1b26;--markmap-code-color: #ddd;--markmap-circle-open-bg: #444;--markmap-text-color: #eee}</style><g transform="translate(33.799999999999955,77.06422362298781) scale(0.8334004024144869)"><path class="markmap-link" data-depth="4" data-path="1.2.3.4" d="M432,-1098.828C472,-1098.828,472,-1045.922,512,-1045.922" stroke-width="1.1875" stroke="rgb(140, 86, 75)"></path><path class="markmap-link" data-depth="4" data-path="1.2.5.6" d="M416,-960.641C456,-960.641,456,-907.734,496,-907.734" stroke-width="1.1875" stroke="rgb(127, 127, 127)"></path><path class="markmap-link" data-depth="3" data-path="1.2.3" d="M288,-1029.547C328,-1029.547,328,-1098.828,368,-1098.828" stroke-width="1.375" stroke="rgb(148, 103, 189)"></path><path class="markmap-link" data-depth="3" data-path="1.2.5" d="M288,-1029.547C328,-1029.547,328,-960.641,368,-960.641" stroke-width="1.375" stroke="rgb(227, 119, 194)"></path><path class="markmap-link" data-depth="4" data-path="1.7.8.9" d="M448,-782.453C488,-782.453,488,-689.547,528,-689.547" stroke-width="1.1875" stroke="rgb(31, 119, 180)"></path><path class="markmap-link" data-depth="4" data-path="1.7.10.11" d="M464,-624.266C504,-624.266,504,-591.359,544,-591.359" stroke-width="1.1875" stroke="rgb(44, 160, 44)"></path><path class="markmap-link" data-depth="3" data-path="1.7.8" d="M288,-703.172C328,-703.172,328,-782.453,368,-782.453" stroke-width="1.375" stroke="rgb(23, 190, 207)"></path><path class="markmap-link" data-depth="3" data-path="1.7.10" d="M288,-703.172C328,-703.172,328,-624.266,368,-624.266" stroke-width="1.375" stroke="rgb(255, 127, 14)"></path><path class="markmap-link" data-depth="4" data-path="1.12.13.14" d="M448,-516.078C488,-516.078,488,-473.172,528,-473.172" stroke-width="1.1875" stroke="rgb(140, 86, 75)"></path><path class="markmap-link" data-depth="4" data-path="1.12.15.16" d="M448,-377.891C488,-377.891,488,-314.984,528,-314.984" stroke-width="1.1875" stroke="rgb(127, 127, 127)"></path><path class="markmap-link" data-depth="3" data-path="1.12.13" d="M288,-446.797C328,-446.797,328,-516.078,368,-516.078" stroke-width="1.375" stroke="rgb(148, 103, 189)"></path><path class="markmap-link" data-depth="3" data-path="1.12.15" d="M288,-446.797C328,-446.797,328,-377.891,368,-377.891" stroke-width="1.375" stroke="rgb(227, 119, 194)"></path><path class="markmap-link" data-depth="4" data-path="1.17.18.19" d="M432,-169.703C472,-169.703,472,-56.797,512,-56.797" stroke-width="1.1875" stroke="rgb(31, 119, 180)"></path><path class="markmap-link" data-depth="4" data-path="1.17.20.21" d="M448,18.484C488,18.484,488,61.391,528,61.391" stroke-width="1.1875" stroke="rgb(44, 160, 44)"></path><path class="markmap-link" data-depth="3" data-path="1.17.18" d="M272,-75.422C312,-75.422,312,-169.703,352,-169.703" stroke-width="1.375" stroke="rgb(23, 190, 207)"></path><path class="markmap-link" data-depth="3" data-path="1.17.20" d="M272,-75.422C312,-75.422,312,18.484,352,18.484" stroke-width="1.375" stroke="rgb(255, 127, 14)"></path><path class="markmap-link" data-depth="4" data-path="1.22.23.24" d="M432,176.672C472,176.672,472,259.578,512,259.578" stroke-width="1.1875" stroke="rgb(140, 86, 75)"></path><path class="markmap-link" data-depth="3" data-path="1.22.23" d="M272,176.859C312,176.859,312,176.672,352,176.672" stroke-width="1.375" stroke="rgb(148, 103, 189)"></path><path class="markmap-link" data-depth="4" data-path="1.25.26.27" d="M473,384.859C513,384.859,513,477.766,553,477.766" stroke-width="1.1875" stroke="rgb(188, 189, 34)"></path><path class="markmap-link" data-depth="3" data-path="1.25.26" d="M297,385.047C337,385.047,337,384.859,377,384.859" stroke-width="1.375" stroke="rgb(127, 127, 127)"></path><path class="markmap-link" data-depth="4" data-path="1.28.29.30" d="M506,543.047C546,543.047,546,575.953,586,575.953" stroke-width="1.1875" stroke="rgb(255, 127, 14)"></path><path class="markmap-link" data-depth="4" data-path="1.28.31.32" d="M506,651.234C546,651.234,546,694.141,586,694.141" stroke-width="1.1875" stroke="rgb(214, 39, 40)"></path><path class="markmap-link" data-depth="3" data-path="1.28.29" d="M256,597.328C296,597.328,296,543.047,336,543.047" stroke-width="1.375" stroke="rgb(31, 119, 180)"></path><path class="markmap-link" data-depth="3" data-path="1.28.31" d="M256,597.328C296,597.328,296,651.234,336,651.234" stroke-width="1.375" stroke="rgb(44, 160, 44)"></path><path class="markmap-link" data-depth="4" data-path="1.33.34.35" d="M384,762.422C424,762.422,424,798.328,464,798.328" stroke-width="1.1875" stroke="rgb(227, 119, 194)"></path><path class="markmap-link" data-depth="4" data-path="1.33.36.37" d="M384,855.109C424,855.109,424,879.516,464,879.516" stroke-width="1.1875" stroke="rgb(188, 189, 34)"></path><path class="markmap-link" data-depth="4" data-path="1.33.38.39" d="M384,924.797C424,924.797,424,937.703,464,937.703" stroke-width="1.1875" stroke="rgb(31, 119, 180)"></path><path class="markmap-link" data-depth="3" data-path="1.33.34" d="M256,843.797C296,843.797,296,762.422,336,762.422" stroke-width="1.375" stroke="rgb(140, 86, 75)"></path><path class="markmap-link" data-depth="3" data-path="1.33.36" d="M256,843.797C296,843.797,296,855.109,336,855.109" stroke-width="1.375" stroke="rgb(127, 127, 127)"></path><path class="markmap-link" data-depth="3" data-path="1.33.38" d="M256,843.797C296,843.797,296,924.797,336,924.797" stroke-width="1.375" stroke="rgb(23, 190, 207)"></path><path class="markmap-link" data-depth="3" data-path="1.40.41" d="M224,1052.297C264,1052.297,264,969.984,304,969.984" stroke-width="1.375" stroke="rgb(44, 160, 44)"></path><path class="markmap-link" data-depth="3" data-path="1.40.42" d="M224,1052.297C264,1052.297,264,997.359,304,997.359" stroke-width="1.375" stroke="rgb(214, 39, 40)"></path><path class="markmap-link" data-depth="3" data-path="1.40.43" d="M224,1052.297C264,1052.297,264,1024.734,304,1024.734" stroke-width="1.375" stroke="rgb(148, 103, 189)"></path><path class="markmap-link" data-depth="3" data-path="1.40.44" d="M224,1052.297C264,1052.297,264,1052.109,304,1052.109" stroke-width="1.375" stroke="rgb(140, 86, 75)"></path><path class="markmap-link" data-depth="3" data-path="1.40.45" d="M224,1052.297C264,1052.297,264,1079.484,304,1079.484" stroke-width="1.375" stroke="rgb(227, 119, 194)"></path><path class="markmap-link" data-depth="3" data-path="1.40.46" d="M224,1052.297C264,1052.297,264,1106.859,304,1106.859" stroke-width="1.375" stroke="rgb(127, 127, 127)"></path><path class="markmap-link" data-depth="3" data-path="1.40.47" d="M224,1052.297C264,1052.297,264,1134.234,304,1134.234" stroke-width="1.375" stroke="rgb(188, 189, 34)"></path><path class="markmap-link" data-depth="2" data-path="1.2" d="M96,11.75C136,11.75,136,-1029.547,176,-1029.547" stroke-width="1.75" stroke="rgb(255, 127, 14)"></path><path class="markmap-link" data-depth="2" data-path="1.7" d="M96,11.75C136,11.75,136,-703.172,176,-703.172" stroke-width="1.75" stroke="rgb(188, 189, 34)"></path><path class="markmap-link" data-depth="2" data-path="1.12" d="M96,11.75C136,11.75,136,-446.797,176,-446.797" stroke-width="1.75" stroke="rgb(214, 39, 40)"></path><path class="markmap-link" data-depth="2" data-path="1.17" d="M96,11.75C136,11.75,136,-75.422,176,-75.422" stroke-width="1.75" stroke="rgb(188, 189, 34)"></path><path class="markmap-link" data-depth="2" data-path="1.22" d="M96,11.75C136,11.75,136,176.859,176,176.859" stroke-width="1.75" stroke="rgb(214, 39, 40)"></path><path class="markmap-link" data-depth="2" data-path="1.25" d="M96,11.75C136,11.75,136,385.047,176,385.047" stroke-width="1.75" stroke="rgb(227, 119, 194)"></path><path class="markmap-link" data-depth="2" data-path="1.28" d="M96,11.75C136,11.75,136,597.328,176,597.328" stroke-width="1.75" stroke="rgb(23, 190, 207)"></path><path class="markmap-link" data-depth="2" data-path="1.33" d="M96,11.75C136,11.75,136,843.797,176,843.797" stroke-width="1.75" stroke="rgb(148, 103, 189)"></path><path class="markmap-link" data-depth="2" data-path="1.40" d="M96,11.75C136,11.75,136,1052.297,176,1052.297" stroke-width="1.75" stroke="rgb(255, 127, 14)"></path><g class="markmap-highlight"></g><g data-depth="4" data-path="1.2.3.4" class="markmap-node" transform="translate(512, -1173.515625)"><line stroke="#8c564b" stroke-width="1.1875" x1="-1" x2="207" y1="127.59375" y2="127.59375"></line></g><g data-depth="3" data-path="1.2.3" class="markmap-node" transform="translate(368, -1120.515625)"><line stroke="#9467bd" stroke-width="1.375" x1="-1" x2="66" y1="21.6875" y2="21.6875"></line><circle stroke-width="1.5" r="6" stroke="#9467bd" fill="var(--markmap-circle-open-bg)" cx="64" cy="21.6875"></circle></g><g data-depth="4" data-path="1.2.5.6" class="markmap-node" transform="translate(496, -1035.328125)"><line stroke="#7f7f7f" stroke-width="1.1875" x1="-1" x2="207" y1="127.59375" y2="127.59375"></line></g><g data-depth="3" data-path="1.2.5" class="markmap-node" transform="translate(368, -982.328125)"><line stroke="#e377c2" stroke-width="1.375" x1="-1" x2="50" y1="21.6875" y2="21.6875"></line><circle stroke-width="1.5" r="6" stroke="#e377c2" fill="var(--markmap-circle-open-bg)" cx="48" cy="21.6875"></circle></g><g data-depth="2" data-path="1.2" class="markmap-node" transform="translate(176, -1051.421875)"><line stroke="#ff7f0e" stroke-width="1.75" x1="-1" x2="114" y1="21.875" y2="21.875"></line><circle stroke-width="1.5" r="6" stroke="#ff7f0e" fill="var(--markmap-circle-open-bg)" cx="112" cy="21.875"></circle></g><g data-depth="4" data-path="1.7.8.9" class="markmap-node" transform="translate(528, -897.140625)"><line stroke="#1f77b4" stroke-width="1.1875" x1="-1" x2="241" y1="207.59375" y2="207.59375"></line></g><g data-depth="3" data-path="1.7.8" class="markmap-node" transform="translate(368, -804.140625)"><line stroke="#17becf" stroke-width="1.375" x1="-1" x2="82" y1="21.6875" y2="21.6875"></line><circle stroke-width="1.5" r="6" stroke="#17becf" fill="var(--markmap-circle-open-bg)" cx="80" cy="21.6875"></circle></g><g data-depth="4" data-path="1.7.10.11" class="markmap-node" transform="translate(544, -678.953125)"><line stroke="#2ca02c" stroke-width="1.1875" x1="-1" x2="235" y1="87.59375" y2="87.59375"></line></g><g data-depth="3" data-path="1.7.10" class="markmap-node" transform="translate(368, -645.953125)"><line stroke="#ff7f0e" stroke-width="1.375" x1="-1" x2="98" y1="21.6875" y2="21.6875"></line><circle stroke-width="1.5" r="6" stroke="#ff7f0e" fill="var(--markmap-circle-open-bg)" cx="96" cy="21.6875"></circle></g><g data-depth="2" data-path="1.7" class="markmap-node" transform="translate(176, -725.046875)"><line stroke="#bcbd22" stroke-width="1.75" x1="-1" x2="114" y1="21.875" y2="21.875"></line><circle stroke-width="1.5" r="6" stroke="#bcbd22" fill="var(--markmap-circle-open-bg)" cx="112" cy="21.875"></circle></g><g data-depth="4" data-path="1.12.13.14" class="markmap-node" transform="translate(528, -580.765625)"><line stroke="#8c564b" stroke-width="1.1875" x1="-1" x2="247" y1="107.59375" y2="107.59375"></line></g><g data-depth="3" data-path="1.12.13" class="markmap-node" transform="translate(368, -537.765625)"><line stroke="#9467bd" stroke-width="1.375" x1="-1" x2="82" y1="21.6875" y2="21.6875"></line><circle stroke-width="1.5" r="6" stroke="#9467bd" fill="var(--markmap-circle-open-bg)" cx="80" cy="21.6875"></circle></g><g data-depth="4" data-path="1.12.15.16" class="markmap-node" transform="translate(528, -462.578125)"><line stroke="#7f7f7f" stroke-width="1.1875" x1="-1" x2="232" y1="147.59375" y2="147.59375"></line></g><g data-depth="3" data-path="1.12.15" class="markmap-node" transform="translate(368, -399.578125)"><line stroke="#e377c2" stroke-width="1.375" x1="-1" x2="82" y1="21.6875" y2="21.6875"></line><circle stroke-width="1.5" r="6" stroke="#e377c2" fill="var(--markmap-circle-open-bg)" cx="80" cy="21.6875"></circle></g><g data-depth="2" data-path="1.12" class="markmap-node" transform="translate(176, -468.671875)"><line stroke="#d62728" stroke-width="1.75" x1="-1" x2="114" y1="21.875" y2="21.875"></line><circle stroke-width="1.5" r="6" stroke="#d62728" fill="var(--markmap-circle-open-bg)" cx="112" cy="21.875"></circle></g><g data-depth="4" data-path="1.17.18.19" class="markmap-node" transform="translate(512, -304.390625)"><line stroke="#1f77b4" stroke-width="1.1875" x1="-1" x2="227" y1="247.59375" y2="247.59375"></line></g><g data-depth="3" data-path="1.17.18" class="markmap-node" transform="translate(352, -191.390625)"><line stroke="#17becf" stroke-width="1.375" x1="-1" x2="82" y1="21.6875" y2="21.6875"></line><circle stroke-width="1.5" r="6" stroke="#17becf" fill="var(--markmap-circle-open-bg)" cx="80" cy="21.6875"></circle></g><g data-depth="4" data-path="1.17.20.21" class="markmap-node" transform="translate(528, -46.203125)"><line stroke="#2ca02c" stroke-width="1.1875" x1="-1" x2="171" y1="107.59375" y2="107.59375"></line></g><g data-depth="3" data-path="1.17.20" class="markmap-node" transform="translate(352, -3.203125)"><line stroke="#ff7f0e" stroke-width="1.375" x1="-1" x2="98" y1="21.6875" y2="21.6875"></line><circle stroke-width="1.5" r="6" stroke="#ff7f0e" fill="var(--markmap-circle-open-bg)" cx="96" cy="21.6875"></circle></g><g data-depth="2" data-path="1.17" class="markmap-node" transform="translate(176, -97.296875)"><line stroke="#bcbd22" stroke-width="1.75" x1="-1" x2="98" y1="21.875" y2="21.875"></line><circle stroke-width="1.5" r="6" stroke="#bcbd22" fill="var(--markmap-circle-open-bg)" cx="96" cy="21.875"></circle></g><g data-depth="4" data-path="1.22.23.24" class="markmap-node" transform="translate(512, 71.984375)"><line stroke="#8c564b" stroke-width="1.1875" x1="-1" x2="249" y1="187.59375" y2="187.59375"></line></g><g data-depth="3" data-path="1.22.23" class="markmap-node" transform="translate(352, 154.984375)"><line stroke="#9467bd" stroke-width="1.375" x1="-1" x2="82" y1="21.6875" y2="21.6875"></line><circle stroke-width="1.5" r="6" stroke="#9467bd" fill="var(--markmap-circle-open-bg)" cx="80" cy="21.6875"></circle></g><g data-depth="2" data-path="1.22" class="markmap-node" transform="translate(176, 154.984375)"><line stroke="#d62728" stroke-width="1.75" x1="-1" x2="98" y1="21.875" y2="21.875"></line><circle stroke-width="1.5" r="6" stroke="#d62728" fill="var(--markmap-circle-open-bg)" cx="96" cy="21.875"></circle></g><g data-depth="4" data-path="1.25.26.27" class="markmap-node" transform="translate(553, 270.171875)"><line stroke="#bcbd22" stroke-width="1.1875" x1="-1" x2="249" y1="207.59375" y2="207.59375"></line></g><g data-depth="3" data-path="1.25.26" class="markmap-node" transform="translate(377, 363.171875)"><line stroke="#7f7f7f" stroke-width="1.375" x1="-1" x2="98" y1="21.6875" y2="21.6875"></line><circle stroke-width="1.5" r="6" stroke="#7f7f7f" fill="var(--markmap-circle-open-bg)" cx="96" cy="21.6875"></circle></g><g data-depth="2" data-path="1.25" class="markmap-node" transform="translate(176, 363.171875)"><line stroke="#e377c2" stroke-width="1.75" x1="-1" x2="123" y1="21.875" y2="21.875"></line><circle stroke-width="1.5" r="6" stroke="#e377c2" fill="var(--markmap-circle-open-bg)" cx="121" cy="21.875"></circle></g><g data-depth="4" data-path="1.28.29.30" class="markmap-node" transform="translate(586, 488.359375)"><line stroke="#ff7f0e" stroke-width="1.1875" x1="-1" x2="252" y1="87.59375" y2="87.59375"></line></g><g data-depth="3" data-path="1.28.29" class="markmap-node" transform="translate(336, 521.359375)"><line stroke="#1f77b4" stroke-width="1.375" x1="-1" x2="172" y1="21.6875" y2="21.6875"></line><circle stroke-width="1.5" r="6" stroke="#1f77b4" fill="var(--markmap-circle-open-bg)" cx="170" cy="21.6875"></circle></g><g data-depth="4" data-path="1.28.31.32" class="markmap-node" transform="translate(586, 586.546875)"><line stroke="#d62728" stroke-width="1.1875" x1="-1" x2="235" y1="107.59375" y2="107.59375"></line></g><g data-depth="3" data-path="1.28.31" class="markmap-node" transform="translate(336, 629.546875)"><line stroke="#2ca02c" stroke-width="1.375" x1="-1" x2="172" y1="21.6875" y2="21.6875"></line><circle stroke-width="1.5" r="6" stroke="#2ca02c" fill="var(--markmap-circle-open-bg)" cx="170" cy="21.6875"></circle></g><g data-depth="2" data-path="1.28" class="markmap-node" transform="translate(176, 575.453125)"><line stroke="#17becf" stroke-width="1.75" x1="-1" x2="82" y1="21.875" y2="21.875"></line><circle stroke-width="1.5" r="6" stroke="#17becf" fill="var(--markmap-circle-open-bg)" cx="80" cy="21.875"></circle></g><g data-depth="4" data-path="1.33.34.35" class="markmap-node" transform="translate(464, 704.734375)"><line stroke="#e377c2" stroke-width="1.1875" x1="-1" x2="317" y1="93.59375" y2="93.59375"></line></g><g data-depth="3" data-path="1.33.34" class="markmap-node" transform="translate(336, 740.734375)"><line stroke="#8c564b" stroke-width="1.375" x1="-1" x2="50" y1="21.6875" y2="21.6875"></line><circle stroke-width="1.5" r="6" stroke="#8c564b" fill="var(--markmap-circle-open-bg)" cx="48" cy="21.6875"></circle></g><g data-depth="4" data-path="1.33.36.37" class="markmap-node" transform="translate(464, 808.921875)"><line stroke="#bcbd22" stroke-width="1.1875" x1="-1" x2="285" y1="70.59375" y2="70.59375"></line></g><g data-depth="3" data-path="1.33.36" class="markmap-node" transform="translate(336, 833.421875)"><line stroke="#7f7f7f" stroke-width="1.375" x1="-1" x2="50" y1="21.6875" y2="21.6875"></line><circle stroke-width="1.5" r="6" stroke="#7f7f7f" fill="var(--markmap-circle-open-bg)" cx="48" cy="21.6875"></circle></g><g data-depth="4" data-path="1.33.38.39" class="markmap-node" transform="translate(464, 890.109375)"><line stroke="#1f77b4" stroke-width="1.1875" x1="-1" x2="237" y1="47.59375" y2="47.59375"></line></g><g data-depth="3" data-path="1.33.38" class="markmap-node" transform="translate(336, 903.109375)"><line stroke="#17becf" stroke-width="1.375" x1="-1" x2="50" y1="21.6875" y2="21.6875"></line><circle stroke-width="1.5" r="6" stroke="#17becf" fill="var(--markmap-circle-open-bg)" cx="48" cy="21.6875"></circle></g><g data-depth="2" data-path="1.33" class="markmap-node" transform="translate(176, 821.921875)"><line stroke="#9467bd" stroke-width="1.75" x1="-1" x2="82" y1="21.875" y2="21.875"></line><circle stroke-width="1.5" r="6" stroke="#9467bd" fill="var(--markmap-circle-open-bg)" cx="80" cy="21.875"></circle></g><g data-depth="3" data-path="1.40.41" class="markmap-node" transform="translate(304, 948.296875)"><line stroke="#2ca02c" stroke-width="1.375" x1="-1" x2="87" y1="21.6875" y2="21.6875"></line></g><g data-depth="3" data-path="1.40.42" class="markmap-node" transform="translate(304, 975.671875)"><line stroke="#d62728" stroke-width="1.375" x1="-1" x2="71" y1="21.6875" y2="21.6875"></line></g><g data-depth="3" data-path="1.40.43" class="markmap-node" transform="translate(304, 1003.046875)"><line stroke="#9467bd" stroke-width="1.375" x1="-1" x2="71" y1="21.6875" y2="21.6875"></line></g><g data-depth="3" data-path="1.40.44" class="markmap-node" transform="translate(304, 1030.421875)"><line stroke="#8c564b" stroke-width="1.375" x1="-1" x2="71" y1="21.6875" y2="21.6875"></line></g><g data-depth="3" data-path="1.40.45" class="markmap-node" transform="translate(304, 1057.796875)"><line stroke="#e377c2" stroke-width="1.375" x1="-1" x2="87" y1="21.6875" y2="21.6875"></line></g><g data-depth="3" data-path="1.40.46" class="markmap-node" transform="translate(304, 1085.171875)"><line stroke="#7f7f7f" stroke-width="1.375" x1="-1" x2="71" y1="21.6875" y2="21.6875"></line></g><g data-depth="3" data-path="1.40.47" class="markmap-node" transform="translate(304, 1112.546875)"><line stroke="#bcbd22" stroke-width="1.375" x1="-1" x2="103" y1="21.6875" y2="21.6875"></line></g><g data-depth="2" data-path="1.40" class="markmap-node" transform="translate(176, 1030.421875)"><line stroke="#ff7f0e" stroke-width="1.75" x1="-1" x2="50" y1="21.875" y2="21.875"></line><circle stroke-width="1.5" r="6" stroke="#ff7f0e" fill="var(--markmap-circle-open-bg)" cx="48" cy="21.875"></circle></g><g data-depth="1" data-path="1" class="markmap-node" transform="translate(0, -10.5)"><line stroke="#1f77b4" stroke-width="2.5" x1="-1" x2="98" y1="22.25" y2="22.25"></line><circle stroke-width="1.5" r="6" stroke="#1f77b4" fill="var(--markmap-circle-open-bg)" cx="96" cy="22.25"></circle></g></g></svg>